<svg xmlns="http://www.w3.org/2000/svg" width="80" height="80">
  <rect id="backgroundrect" width="100" height="100" x="0" y="0" fill="none" stroke="none"/>
  <g class="currentLayer">
    <title>
      Layer 1
    </title>
    <path fill="#02B3E4" fill-rule="evenodd" d="M28.18 1.35L2.9 15.95 2.9 49.57 2.9 49.57C2.86 65.01 15.25 77.57 30.59 77.62 35.67 77.63 40.43 76.28 44.52 73.9L44.52 73.9 65 62.06C73.08 57.84 78.61 49.35 78.64 39.55L78.64 4.44 78.64 4.44 78.64 4.44 73.63 1.49 52.15 13.17 52.15 13.17 52.15 13.17 52.14 49.72C52.14 51.28 52.03 52.83 51.72 54.34 51.41 55.81 50.97 57.24 50.38 58.62 50.23 58.98 50.07 59.33 49.9 59.68 49.05 59.69 44.49 58.02 41.97 56.31 40.9 55.58 39.9 54.74 38.99 53.81 38.08 52.89 37.25 51.87 36.53 50.79 35.8 49.7 35.18 48.54 34.68 47.33 34.17 46.11 33.77 44.82 33.51 43.52 33.25 42.18 33.19 40.8 33.19 39.42L33.19 39.42 33.21 4.3 28.18 1.35 28.18 1.35zM40.31 70.41C38.94 70.99 37.03 71.75 35.58 72.05 34.08 72.35 32.7 72.5 31.15 72.5 29.61 72.49 28.06 72.33 26.57 72.02 25.11 71.71 23.68 71.26 22.31 70.67 20.97 70.09 19.67 69.38 18.46 68.55 15.33 66.34 13.72 64.42 12.33 62.35 11.52 61.12 10.82 59.81 10.25 58.46 9.67 57.08 9.24 55.63 8.94 54.16 8.64 52.66 8.58 51.1 8.58 49.55L8.59 18.85 27.52 7.21 27.52 39.39 27.52 39.39C27.48 51.62 36.43 61.82 47.85 64.29 47.4 64.83 47.08 65.35 46.58 65.84 44.46 68.01 42.68 69.4 40.31 70.41L40.31 70.41zM72.65 43.7C72.38 45 71.98 46.28 71.46 47.51 70.96 48.71 70.32 49.87 69.59 50.95 68.87 52.03 66.61 54.87 63.49 56.67 60.37 58.46 57.65 58.98 55.87 59.32 57.02 56.27 57.82 53.2 57.83 49.75L57.83 49.75 57.83 16.12 57.83 16.12 72.98 7.36 72.99 39.54C72.98 40.92 72.93 42.36 72.65 43.7L72.65 43.7z" id="svg_1" class=""/>
  </g>
</svg>
